<svg width="114" height="108" viewBox="0 0 114 108" fill="none" xmlns="http://www.w3.org/2000/svg">
<circle cx="54" cy="54" r="53.5" fill="#011E22" fill-opacity="0.5" stroke="#00FFF7"/>
<rect x="43.5" y="31.5" width="21" height="24" rx="8.5" stroke="#09FFF3" stroke-width="3"/>
<path d="M67 47C69.7614 47 72 49.2386 72 52V73C72 75.7614 69.7614 78 67 78H41C38.2386 78 36 75.7614 36 73V52C36 49.2386 38.2386 47 41 47H67ZM54.5 57C51.4624 57 49 59.4624 49 62.5C49.0002 64.6935 50.285 66.5859 52.1426 67.4688V70.7139C52.1426 71.8183 53.0381 72.7137 54.1426 72.7139H54.8574C55.9619 72.7137 56.8574 71.8183 56.8574 70.7139V67.4688C58.715 66.5859 59.9998 64.6935 60 62.5C60 59.4624 57.5376 57 54.5 57Z" fill="#09FFF3"/>
<circle cx="97.5" cy="89.5" r="16.5" fill="#00FFF6"/>
<path d="M94.9615 78.0769H100.038L98.7692 93.3077H96.2308L94.9615 78.0769Z" fill="black"/>
<circle cx="97.5" cy="97.1154" r="2.53846" fill="black"/>
</svg>
