<svg width="31" height="37" viewBox="0 0 31 37" fill="none" xmlns="http://www.w3.org/2000/svg">
<rect x="0.5" y="0.5" width="23.2857" height="30.5049" stroke="#00FFF7"/>
<path d="M0 0L14.2857 5.49505V37L0 31.505V0Z" fill="#00FFF7"/>
<path d="M30.5305 18.1143C30.8234 17.8214 30.8234 17.3465 30.5305 17.0537L25.7575 12.2807C25.4646 11.9878 24.9897 11.9878 24.6968 12.2807C24.4039 12.5736 24.4039 13.0485 24.6968 13.3413L28.9395 17.584L24.6968 21.8266C24.4039 22.1195 24.4039 22.5944 24.6968 22.8873C24.9897 23.1802 25.4646 23.1802 25.7575 22.8873L30.5305 18.1143ZM16.4287 17.584V18.334H30.0001V17.584V16.834H16.4287V17.584Z" fill="#00FFF7"/>
</svg>
