<svg width="319" height="68" viewBox="0 0 319 68" fill="none" xmlns="http://www.w3.org/2000/svg">
<g filter="url(#filter0_dn_347_3076)">
<path d="M22.1819 32.7273H32.0001L35.5455 37.1818L41.5455 44L49.3637 53.4545H38.1819L32.6364 47L28.9092 41.6364L22.1819 32.7273ZM49.2728 26.7273C49.2728 31.9091 48.2652 36.2803 46.2501 39.8409C44.2349 43.3864 41.5152 46.0758 38.091 47.9091C34.6667 49.7273 30.8486 50.6364 26.6364 50.6364C22.394 50.6364 18.5607 49.7197 15.1364 47.8864C11.7273 46.0379 9.01522 43.3409 7.00007 39.7955C5.00007 36.2348 4.00007 31.8788 4.00007 26.7273C4.00007 21.5455 5.00007 17.1818 7.00007 13.6364C9.01522 10.0758 11.7273 7.38636 15.1364 5.56818C18.5607 3.73485 22.394 2.81818 26.6364 2.81818C30.8486 2.81818 34.6667 3.73485 38.091 5.56818C41.5152 7.38636 44.2349 10.0758 46.2501 13.6364C48.2652 17.1818 49.2728 21.5455 49.2728 26.7273ZM36.2728 26.7273C36.2728 23.9394 35.9016 21.5909 35.1592 19.6818C34.4319 17.7576 33.3486 16.303 31.9092 15.3182C30.4849 14.3182 28.7273 13.8182 26.6364 13.8182C24.5455 13.8182 22.7804 14.3182 21.341 15.3182C19.9167 16.303 18.8334 17.7576 18.091 19.6818C17.3637 21.5909 17.0001 23.9394 17.0001 26.7273C17.0001 29.5152 17.3637 31.8712 18.091 33.7955C18.8334 35.7045 19.9167 37.1591 21.341 38.1591C22.7804 39.1439 24.5455 39.6364 26.6364 39.6364C28.7273 39.6364 30.4849 39.1439 31.9092 38.1591C33.3486 37.1591 34.4319 35.7045 35.1592 33.7955C35.9016 31.8712 36.2728 29.5152 36.2728 26.7273ZM78.0001 34.7273V15.0909H90.5455V50H78.6364V43.3636H78.2728C77.5152 45.5909 76.1895 47.3333 74.2955 48.5909C72.4016 49.8333 70.1516 50.4545 67.5455 50.4545C65.1061 50.4545 62.9698 49.8939 61.1364 48.7727C59.3182 47.6515 57.9016 46.1061 56.8864 44.1364C55.8864 42.1667 55.3789 39.9091 55.3637 37.3636V15.0909H67.9092V34.7273C67.9243 36.4545 68.3637 37.8106 69.2273 38.7955C70.1061 39.7803 71.3334 40.2727 72.9092 40.2727C73.9546 40.2727 74.8561 40.053 75.6137 39.6136C76.3864 39.1591 76.9773 38.5227 77.3864 37.7045C77.8107 36.8712 78.0152 35.8788 78.0001 34.7273ZM96.9262 50V15.0909H109.472V50H96.9262ZM103.199 11.4545C101.502 11.4545 100.047 10.8939 98.8353 9.77273C97.6232 8.65151 97.0171 7.30303 97.0171 5.72727C97.0171 4.15151 97.6232 2.80303 98.8353 1.68182C100.047 0.560605 101.502 0 103.199 0C104.911 0 106.366 0.560605 107.563 1.68182C108.775 2.80303 109.381 4.15151 109.381 5.72727C109.381 7.30303 108.775 8.65151 107.563 9.77273C106.366 10.8939 104.911 11.4545 103.199 11.4545ZM116.227 50V43.0909L131.5 24.8182V24.6364H116.773V15.0909H146.318V22.7273L132.409 40.2727V40.4545H146.864V50H116.227ZM197.074 20.9091H184.256C184.165 19.8485 183.922 18.8864 183.528 18.0227C183.15 17.1591 182.619 16.4167 181.938 15.7955C181.271 15.1591 180.46 14.6742 179.506 14.3409C178.551 13.9924 177.468 13.8182 176.256 13.8182C174.135 13.8182 172.339 14.3333 170.869 15.3636C169.415 16.3939 168.309 17.8712 167.551 19.7955C166.809 21.7197 166.438 24.0303 166.438 26.7273C166.438 29.5758 166.816 31.9621 167.574 33.8864C168.347 35.7955 169.46 37.2348 170.915 38.2045C172.369 39.1591 174.119 39.6364 176.165 39.6364C177.332 39.6364 178.377 39.4924 179.301 39.2045C180.225 38.9015 181.028 38.4697 181.71 37.9091C182.392 37.3485 182.945 36.6742 183.369 35.8864C183.809 35.0833 184.104 34.1818 184.256 33.1818L197.074 33.2727C196.922 35.2424 196.369 37.25 195.415 39.2955C194.46 41.3258 193.104 43.2045 191.347 44.9318C189.604 46.6439 187.445 48.0227 184.869 49.0682C182.294 50.1136 179.301 50.6364 175.892 50.6364C171.619 50.6364 167.786 49.7197 164.392 47.8864C161.013 46.053 158.339 43.3561 156.369 39.7955C154.415 36.2348 153.438 31.8788 153.438 26.7273C153.438 21.5455 154.438 17.1818 156.438 13.6364C158.438 10.0758 161.135 7.38636 164.528 5.56818C167.922 3.73485 171.71 2.81818 175.892 2.81818C178.832 2.81818 181.536 3.21969 184.006 4.02272C186.475 4.82576 188.642 6 190.506 7.54545C192.369 9.07576 193.869 10.9621 195.006 13.2045C196.142 15.447 196.832 18.0152 197.074 20.9091ZM202.989 50V15.0909H215.171V21.7273H215.534C216.171 19.2727 217.178 17.4773 218.557 16.3409C219.951 15.2045 221.58 14.6364 223.443 14.6364C223.989 14.6364 224.527 14.6818 225.057 14.7727C225.602 14.8485 226.125 14.9621 226.625 15.1136V25.8182C226.004 25.6061 225.239 25.447 224.33 25.3409C223.421 25.2348 222.64 25.1818 221.989 25.1818C220.761 25.1818 219.655 25.4621 218.671 26.0227C217.701 26.5682 216.936 27.3409 216.375 28.3409C215.814 29.3258 215.534 30.4848 215.534 31.8182V50H202.989ZM238.841 50.5455C236.614 50.5455 234.644 50.1818 232.932 49.4545C231.235 48.7121 229.902 47.5909 228.932 46.0909C227.962 44.5909 227.477 42.6818 227.477 40.3636C227.477 38.4545 227.803 36.8258 228.455 35.4773C229.106 34.1136 230.015 33 231.182 32.1364C232.349 31.2727 233.705 30.6136 235.25 30.1591C236.811 29.7045 238.492 29.4091 240.296 29.2727C242.25 29.1212 243.818 28.9394 245 28.7273C246.197 28.5 247.061 28.1894 247.591 27.7955C248.121 27.3864 248.386 26.8485 248.386 26.1818V26.0909C248.386 25.1818 248.038 24.4848 247.341 24C246.644 23.5152 245.75 23.2727 244.659 23.2727C243.462 23.2727 242.485 23.5379 241.727 24.0682C240.985 24.5833 240.538 25.3788 240.386 26.4545H228.841C228.992 24.3333 229.667 22.3788 230.864 20.5909C232.076 18.7879 233.841 17.3485 236.159 16.2727C238.477 15.1818 241.371 14.6364 244.841 14.6364C247.341 14.6364 249.583 14.9318 251.568 15.5227C253.553 16.0985 255.242 16.9091 256.636 17.9545C258.03 18.9848 259.091 20.197 259.818 21.5909C260.561 22.9697 260.932 24.4697 260.932 26.0909V50H249.205V45.0909H248.932C248.235 46.3939 247.386 47.447 246.386 48.25C245.402 49.053 244.273 49.6364 243 50C241.742 50.3636 240.356 50.5455 238.841 50.5455ZM242.932 42.6364C243.886 42.6364 244.78 42.4394 245.614 42.0455C246.462 41.6515 247.152 41.0833 247.682 40.3409C248.212 39.5985 248.477 38.697 248.477 37.6364V34.7273C248.144 34.8636 247.788 34.9924 247.409 35.1136C247.046 35.2348 246.652 35.3485 246.227 35.4545C245.818 35.5606 245.379 35.6591 244.909 35.75C244.455 35.8409 243.977 35.9242 243.477 36C242.508 36.1515 241.712 36.4015 241.091 36.75C240.485 37.0833 240.03 37.5 239.727 38C239.439 38.4848 239.296 39.0303 239.296 39.6364C239.296 40.6061 239.636 41.3485 240.318 41.8636C241 42.3788 241.871 42.6364 242.932 42.6364ZM287.835 15.0909V24.1818H264.472V15.0909H287.835ZM268.926 50V14.0909C268.926 11.2121 269.441 8.82576 270.472 6.93182C271.502 5.03788 272.957 3.62121 274.835 2.68182C276.714 1.74242 278.926 1.27272 281.472 1.27272C283.063 1.27272 284.608 1.39394 286.108 1.63636C287.623 1.87879 288.744 2.09091 289.472 2.27272L287.653 11.2727C287.199 11.1364 286.669 11.0303 286.063 10.9545C285.457 10.8636 284.926 10.8182 284.472 10.8182C283.29 10.8182 282.494 11.0682 282.085 11.5682C281.676 12.0682 281.472 12.7273 281.472 13.5455V50H268.926ZM313.494 15.0909V24.1818H290.494V15.0909H313.494ZM294.949 6.72727H307.494V38.7727C307.494 39.2576 307.578 39.6667 307.744 40C307.911 40.3182 308.169 40.5606 308.517 40.7273C308.866 40.8788 309.313 40.9545 309.858 40.9545C310.237 40.9545 310.676 40.9091 311.176 40.8182C311.691 40.7273 312.07 40.6515 312.313 40.5909L314.131 49.4091C313.57 49.5758 312.767 49.7803 311.722 50.0227C310.691 50.2652 309.464 50.4242 308.04 50.5C305.161 50.6515 302.744 50.3561 300.79 49.6136C298.835 48.8561 297.366 47.6667 296.381 46.0455C295.396 44.4242 294.919 42.3939 294.949 39.9545V6.72727Z" fill="url(#paint0_radial_347_3076)"/>
</g>
<defs>
<filter id="filter0_dn_347_3076" x="0" y="0" width="318.131" height="67.4541" filterUnits="userSpaceOnUse" color-interpolation-filters="sRGB">
<feFlood flood-opacity="0" result="BackgroundImageFix"/>
<feColorMatrix in="SourceAlpha" type="matrix" values="0 0 0 0 0 0 0 0 0 0 0 0 0 0 0 0 0 0 127 0" result="hardAlpha"/>
<feOffset dy="10"/>
<feGaussianBlur stdDeviation="2"/>
<feComposite in2="hardAlpha" operator="out"/>
<feColorMatrix type="matrix" values="0 0 0 0 0 0 0 0 0 0 0 0 0 0 0 0 0 0 1 0"/>
<feBlend mode="normal" in2="BackgroundImageFix" result="effect1_dropShadow_347_3076"/>
<feBlend mode="normal" in="SourceGraphic" in2="BackgroundImageFix" result="shape"/>
<feTurbulence type="fractalNoise" baseFrequency="2 2" stitchTiles="stitch" numOctaves="3" result="noise" seed="3946" />
<feColorMatrix in="noise" type="luminanceToAlpha" result="alphaNoise" />
<feComponentTransfer in="alphaNoise" result="coloredNoise1">
<feFuncA type="discrete" tableValues="1 1 1 1 1 1 1 1 1 1 1 1 1 1 1 1 1 1 1 1 1 1 1 1 1 1 1 1 1 1 1 1 1 1 1 1 1 1 1 1 1 1 1 1 1 1 1 1 1 1 1 0 0 0 0 0 0 0 0 0 0 0 0 0 0 0 0 0 0 0 0 0 0 0 0 0 0 0 0 0 0 0 0 0 0 0 0 0 0 0 0 0 0 0 0 0 0 0 0 0 "/>
</feComponentTransfer>
<feComposite operator="in" in2="shape" in="coloredNoise1" result="noise1Clipped" />
<feFlood flood-color="rgba(0, 0, 0, 0.25)" result="color1Flood" />
<feComposite operator="in" in2="noise1Clipped" in="color1Flood" result="color1" />
<feMerge result="effect2_noise_347_3076">
<feMergeNode in="shape" />
<feMergeNode in="color1" />
</feMerge>
<feBlend mode="normal" in="effect2_noise_347_3076" in2="effect1_dropShadow_347_3076" result="effect2_noise_347_3076"/>
</filter>
<radialGradient id="paint0_radial_347_3076" cx="0" cy="0" r="1" gradientTransform="matrix(107.827 80.8381 -330.701 218.712 158.682 30.0435)" gradientUnits="userSpaceOnUse">
<stop stop-color="#00BFB2"/>
<stop offset="0.0817308" stop-color="#00A59A"/>
<stop offset="0.173077" stop-color="#00B6AA"/>
<stop offset="0.278846" stop-color="#00948A"/>
<stop offset="0.355769" stop-color="#02E3D4"/>
<stop offset="0.413462" stop-color="#02B6AA"/>
<stop offset="0.528846" stop-color="#03E2D3"/>
<stop offset="0.663462" stop-color="#02A096"/>
<stop offset="0.759615" stop-color="#008F86"/>
<stop offset="0.817308" stop-color="#06D1C4"/>
<stop offset="0.902125" stop-color="#03746C"/>
</radialGradient>
</defs>
</svg>
